<?xml version="1.0" encoding="iso-8859-1"?>
<!-- Generator: Adobe Illustrator 18.0.0, SVG Export Plug-In . SVG Version: 6.00 Build 0)  -->
<!DOCTYPE svg PUBLIC "-//W3C//DTD SVG 1.1//EN" "http://www.w3.org/Graphics/SVG/1.1/DTD/svg11.dtd">
<svg version="1.1" id="Capa_1" xmlns="http://www.w3.org/2000/svg" xmlns:xlink="http://www.w3.org/1999/xlink" x="0px" y="0px"
	 viewBox="0 0 461.744 461.744" style="fill:white;enable-background:new 0 0 461.744 461.744;" xml:space="preserve">
<path d="M460.897,290.387c-1.369-3.207-4.23-5.522-7.651-6.193l-20.227-3.967c-2.275-0.447-4.593-0.501-6.884-0.161l-6.835,1.014
	c-5.161,0.767-10.515,0.328-15.479-1.268c-14.665-4.716-43.529-15.215-72.78-32.734c-7.221-12.048-19.359-38.924-21.259-47.155
	l-0.318-1.396c-2.385-10.501-7.347-32.352-21.374-38.665c-8.637-3.885-16.564-4.852-22.934-5.629
	c-3.882-0.473-7.234-0.882-10.017-1.811c-3.731-1.245-8.572-4.357-7.996-16.836c2.111-2.227,4.076-4.92,5.85-8.051
	c5.149-9.089,8.102-20.953,8.102-32.55c0-22.56-12.169-37.717-30.282-37.717c-18.112,0-30.282,15.157-30.282,37.717
	c0,14.618,5.453,30.338,14.032,39.714c0.001,0.03-0.005,0.057-0.003,0.087c0.826,13.153-4.145,16.365-7.956,17.637
	c-2.783,0.929-6.135,1.338-10.017,1.811c-6.37,0.777-14.297,1.744-22.935,5.63c-14.026,6.313-18.988,28.163-21.373,38.664
	l-0.319,1.396c-1.899,8.232-14.037,35.107-21.258,47.155c-29.25,17.52-58.115,28.019-72.779,32.733
	c-4.965,1.597-10.317,2.034-15.48,1.269l-6.834-1.014c-2.294-0.339-4.611-0.285-6.884,0.16l-20.227,3.968
	c-3.422,0.672-6.282,2.986-7.651,6.193c-1.37,3.206-1.064,6.873,0.817,9.809l4.59,7.163c4.357,6.801,11.778,11.003,19.85,11.241
	c0,0,3.559,0.102,3.801,0.102c5.834,0,11.454-2.074,15.895-5.882l3.052-2.616c1.648-1.412,3.44-2.601,5.354-3.566
	c0.601,10.83,9.296,16.908,22.608,26.214c2.889,2.02,6.163,4.309,9.645,6.841c14.371,10.452,35.064,16.211,56.973,22.309
	c12.78,3.557,25.996,7.234,39.08,12.079c25.535,9.455,28.77,19.4,28.977,23.242c0.164,2.958,2.069,5.565,4.865,6.646
	c0.883,0.337,1.798,0.508,2.72,0.508c3.809,0,7.052-2.852,7.545-6.634l4.14-31.883c0.539-4.177-0.906-8.234-3.966-11.13
	c-3.057-2.892-7.183-4.115-11.316-3.343l-3.963,0.735l-1.031-0.163l20.216-5.358l20.492,5.369l-0.959,0.151l-3.963-0.735
	c-4.138-0.771-8.259,0.45-11.316,3.343c-3.06,2.896-4.506,6.953-3.966,11.133l4.14,31.88c0.492,3.782,3.736,6.634,7.545,6.634
	c0.922,0,1.837-0.171,2.732-0.513c2.784-1.075,4.689-3.683,4.854-6.647c0.206-3.837,3.442-13.782,28.976-23.237
	c13.084-4.845,26.3-8.522,39.08-12.079c21.909-6.098,42.602-11.856,56.973-22.308c3.482-2.533,6.756-4.822,9.645-6.842
	c13.31-9.305,22.004-15.382,22.607-26.215c1.914,0.965,3.707,2.154,5.355,3.568l3.051,2.614c4.442,3.809,10.061,5.883,15.896,5.883
	c0.242,0,3.801-0.102,3.801-0.102c8.072-0.238,15.493-4.44,19.85-11.241l4.59-7.162C461.961,297.26,462.267,293.593,460.897,290.387
	z M284.431,286.856c-2.422-3.992-9.112-17.005-7.347-36.294c0.101-0.209,0.178-0.425,0.227-0.645
	c4.328-7.122,6.867-13.74,7.25-24.531c5.171,12.754,11.8,25.216,20.669,39.075c1.961,3.065,4.714,5.584,7.962,7.284
	c5.891,3.085,14.374,6.765,25.311,10.982c-0.853,0.07-1.712,0.145-2.578,0.222C305.791,285.637,289.451,286.594,284.431,286.856z
	 M270.525,248.875c-1.984,1.535-6.104,3.623-12.824,2.129c-1.613-0.36-3.22,0.66-3.58,2.278c-0.359,1.617,0.661,3.22,2.278,3.579
	c2.087,0.464,4.003,0.661,5.755,0.661c3.55,0,6.412-0.815,8.642-1.864c-0.292,16.42,4.888,27.955,7.783,33.085
	c-29.482,14.525-54.117,13.692-69.782,10.328c-12.801-2.751-21.816-7.575-25.808-10.021c2.86-4.977,8.277-16.676,7.959-33.477
	c2.255,1.092,5.184,1.95,8.834,1.95c1.751,0,3.669-0.197,5.755-0.661c1.617-0.359,2.637-1.962,2.278-3.579
	c-0.36-1.618-1.961-2.639-3.58-2.278c-7.376,1.638-11.636-1.058-13.363-2.585c-0.47-0.416-1.549-1.992-1.878-2.546
	c-3.762-6.324-6.17-12.547-5.818-25.93c7.091-4.937,11.65-16.736,13.558-35.134c1.078-10.399,1.019-20.065,0.902-24.661
	c0.74-0.09,1.471-0.181,2.193-0.275c1.455,34.093,14.456,59.394,30.863,59.394c16.425,0,29.425-25.319,30.864-59.44
	c0.724,0.096,1.46,0.187,2.202,0.278c-0.118,4.578-0.181,14.273,0.901,24.703c1.939,18.701,6.62,30.575,13.912,35.364
	c0.335,13.927-2.346,20.049-6.431,26.703C271.979,247.142,270.926,248.565,270.525,248.875z M184.638,250.257
	c1.157,12.083-1.065,21.652-3.158,27.593c-1.521,4.319-3.194,7.395-4.17,9.006c-5.022-0.262-21.362-1.22-51.489-3.907
	c-0.866-0.077-1.726-0.151-2.579-0.222c10.936-4.216,19.419-7.896,25.311-10.982c3.247-1.7,6-4.22,7.961-7.284
	c8.869-13.859,15.498-26.321,20.669-39.075C177.573,236.35,180.183,243.004,184.638,250.257z M230.813,63.267
	c14.751,0,24.282,12.449,24.282,31.717c0,22.078-11.308,42.185-23.725,42.185c-12.768,0-24.839-20.501-24.839-42.185
	C206.531,75.716,216.063,63.267,230.813,63.267z M208.503,158.113c7.473-2.494,11.508-8.639,12.064-18.273
	c3.329,2.121,6.96,3.329,10.803,3.329c3.409,0,6.72-0.966,9.839-2.798c0.672,9.329,4.696,15.294,12.031,17.742
	c0.76,0.254,1.546,0.47,2.35,0.665c-0.549,14.799-3.441,28.488-8.224,38.768c-4.648,9.991-10.725,15.722-16.672,15.722
	c-5.938,0-12.01-5.724-16.658-15.703c-4.78-10.263-7.677-23.926-8.236-38.701C206.728,158.649,207.632,158.404,208.503,158.113z
	 M54.794,299.838c-3.603,1.343-6.909,3.293-9.846,5.81l-3.052,2.616c-3.49,2.99-7.943,4.568-12.54,4.429l-3.075-0.091
	c-6.089-0.18-11.688-3.35-14.975-8.479l-4.59-7.164c-0.393-0.613-0.622-1.285-0.694-1.972c2.632,1.281,6.498,2.661,10.975,2.661
	c3.097,0,6.484-0.661,9.947-2.472c1.468-0.767,2.037-2.58,1.269-4.048c-0.768-1.468-2.582-2.037-4.048-1.269
	c-5.61,2.929-11.04,1.679-14.48,0.217l20.196-3.963c1.601-0.314,3.232-0.352,4.848-0.112l6.834,1.014
	c6.067,0.9,12.359,0.385,18.197-1.492c15.018-4.829,44.688-15.627,74.672-33.686c0.413-0.249,0.76-0.594,1.011-1.005
	c7.545-12.335,20.294-40.59,22.364-49.561l0.324-1.417c2.001-8.809,6.685-29.437,17.984-34.521c5.546-2.495,10.74-3.653,15.535-4.39
	c0.097,4.683,0.103,13.783-0.889,23.315c-1.231,11.818-3.646,20.784-6.984,26.229c0.201-2.137,0.451-4.411,0.755-6.848
	c0.194-1.558-0.845-3.002-2.383-3.313c-1.539-0.319-3.057,0.616-3.481,2.128c-5.721,20.336-13.857,37.913-27.205,58.773
	c-1.399,2.188-3.368,3.986-5.691,5.204c-7.785,4.076-20.364,9.271-37.395,15.439C75.817,280.848,57.807,286.904,54.794,299.838z
	 M212.102,358.216l4.47-0.83c2.23-0.412,4.449,0.244,6.097,1.803c1.651,1.563,2.431,3.75,2.14,6.001l-4.14,31.879
	c-0.12,0.915-0.911,1.408-1.595,1.408c-0.191,0-0.38-0.037-0.568-0.108c-0.59-0.229-0.992-0.769-1.026-1.373
	c-0.027-0.507-0.087-1.056-0.183-1.635c-1.157-10.565-1.051-22.901,1.181-25.451c1.091-1.247,0.964-3.143-0.283-4.233
	c-1.247-1.092-3.143-0.963-4.233,0.282c-0.988,1.13-3.543,5.256-3.462,17.414c-4.81-4.829-12.79-10.061-25.905-14.918
	c-13.318-4.932-26.656-8.643-39.555-12.232c-15.839-4.408-31.02-8.64-43.315-14.528c0.895-2.811,2.634-7.802,5.217-13.151
	c4.767-9.872,10.269-16.568,15.968-19.467c15.952,4.455,26.846,16.126,32.298,21.975c0.869,0.932,1.61,1.726,2.224,2.339
	c4.428,4.429,21.116,13.176,34.336,19.734c4.038,2.004,8.345,3.376,12.802,4.079l6.515,1.028
	C211.423,358.282,211.766,358.28,212.102,358.216z M316.703,356.221c-12.899,3.589-26.237,7.301-39.555,12.232
	c-13.255,4.909-21.259,10.2-26.052,15.07c-0.027-5.361-0.491-11.507-1.978-17.036c-0.43-1.6-2.076-2.542-3.676-2.118
	c-1.6,0.431-2.548,2.077-2.118,3.677c2.675,9.944,1.64,22.673,1.159,27.089c-0.119,0.663-0.188,1.284-0.218,1.855
	c-0.034,0.609-0.437,1.15-1.015,1.374c-0.199,0.076-0.389,0.113-0.58,0.113c-0.684,0-1.476-0.493-1.595-1.407l-4.14-31.877
	c-0.291-2.254,0.489-4.441,2.14-6.004c1.648-1.559,3.871-2.215,6.097-1.803l4.47,0.83c0.336,0.064,0.678,0.067,1.016,0.014
	l6.515-1.028c4.456-0.703,8.763-2.075,12.802-4.079c13.22-6.559,29.909-15.306,34.336-19.734c0.613-0.613,1.355-1.407,2.224-2.339
	c5.372-5.763,16.027-17.179,31.599-21.774c11.816,6.342,18.943,26.541,20.926,32.863
	C346.937,347.793,332.137,351.925,316.703,356.221z M381.492,327.935c-2.91,2.034-6.208,4.34-9.737,6.906
	c-2.24,1.629-4.679,3.133-7.262,4.551c-2.181-6.772-8.186-22.853-18.366-31.764c3.491-0.415,7.179-0.472,11.069-0.048
	c1.647,0.174,3.127-1.011,3.306-2.658c0.179-1.648-1.011-3.128-2.659-3.307c-29.12-3.156-47.745,16.813-55.698,25.343
	c-0.812,0.871-1.504,1.615-2.077,2.188c-2.919,2.919-15.166,9.873-32.761,18.602c-1.103,0.547-2.237,1.02-3.384,1.458l-32.469-8.507
	c-0.502-0.132-1.028-0.131-1.529,0.003l-32.098,8.508c-1.149-0.438-2.286-0.912-3.392-1.461
	c-17.594-8.729-29.841-15.683-32.761-18.602c-0.573-0.573-1.265-1.317-2.077-2.188c-7.952-8.529-26.573-28.503-55.698-25.343
	c-1.647,0.179-2.837,1.659-2.659,3.307c0.179,1.647,1.67,2.831,3.306,2.658c3.531-0.384,6.894-0.368,10.097-0.053
	c-10.002,8.671-16.001,24.275-18.321,31.348c-2.238-1.268-4.365-2.602-6.334-4.034c-3.528-2.565-6.827-4.871-9.737-6.905
	c-15.114-10.566-21.37-14.94-19.86-25.389l0.017-0.113c0.031-0.213,0.063-0.432,0.101-0.652
	c2.329-13.395,31.146-14.461,48.177-13.897c0.047,0.003,0.094,0.004,0.141,0.005c5.072,0.164,10.609,0.513,16.46,1.037
	c32.188,2.871,48.73,3.776,52.58,3.967c2.839,1.945,13.189,8.448,29.354,11.977c5.946,1.299,13.099,2.258,21.26,2.258
	c15.301,0,34.14-3.385,55.156-14.223c3.344-0.162,19.893-1.041,52.82-3.978c5.848-0.524,11.384-0.873,16.458-1.037
	c0.047-0.001,0.095-0.002,0.142-0.005c17.024-0.563,45.847,0.501,48.176,13.892c0.039,0.227,0.071,0.445,0.102,0.658l0.015,0.103
	C402.862,312.995,396.606,317.368,381.492,327.935z M455.028,296.959l-4.59,7.163c-3.288,5.13-8.886,8.3-14.975,8.479l-3.075,0.091
	c-4.591,0.143-9.05-1.436-12.54-4.43l-3.052-2.614c-2.938-2.519-6.245-4.469-9.846-5.811c-3.008-12.933-21.012-18.994-53.581-17.967
	c-17.031-6.17-29.61-11.363-37.394-15.439c-2.324-1.218-4.293-3.017-5.692-5.204c-13.348-20.859-21.484-38.437-27.205-58.773
	c-0.425-1.512-1.944-2.447-3.481-2.128c-1.539,0.311-2.578,1.755-2.383,3.313c0.334,2.672,0.602,5.149,0.812,7.463
	c-3.545-5.369-6.109-14.558-7.389-26.844c-0.996-9.569-0.986-18.701-0.888-23.368c4.891,0.735,10.202,1.888,15.88,4.442
	c11.3,5.086,15.984,25.714,17.985,34.523l0.323,1.417c2.07,8.971,14.819,37.226,22.364,49.561c0.251,0.411,0.598,0.756,1.011,1.005
	c29.985,18.059,59.655,28.857,74.673,33.686c5.835,1.876,12.13,2.394,18.196,1.491l6.835-1.014c1.614-0.239,3.246-0.203,4.848,0.113
	l19.983,3.92c-3.435,1.48-8.917,2.784-14.581-0.176c-1.469-0.769-3.281-0.199-4.048,1.269c-0.768,1.468-0.199,3.281,1.269,4.048
	c3.464,1.812,6.85,2.472,9.947,2.472c4.667,0,8.671-1.499,11.304-2.824C455.687,295.567,455.452,296.297,455.028,296.959z"/>
<g>
</g>
<g>
</g>
<g>
</g>
<g>
</g>
<g>
</g>
<g>
</g>
<g>
</g>
<g>
</g>
<g>
</g>
<g>
</g>
<g>
</g>
<g>
</g>
<g>
</g>
<g>
</g>
<g>
</g>
</svg>
