<?xml version="1.0" encoding="iso-8859-1"?>
<!-- Generator: Adobe Illustrator 18.0.0, SVG Export Plug-In . SVG Version: 6.00 Build 0)  -->
<!DOCTYPE svg PUBLIC "-//W3C//DTD SVG 1.1//EN" "http://www.w3.org/Graphics/SVG/1.1/DTD/svg11.dtd">
<svg version="1.1" id="Capa_1" xmlns="http://www.w3.org/2000/svg" xmlns:xlink="http://www.w3.org/1999/xlink" x="0px" y="0px"
	 viewBox="0 0 474.185 474.185" style="fill:white;enable-background:new 0 0 474.185 474.185;" xml:space="preserve">
<path d="M440.217,224.036c-0.569-0.394-14.225-9.623-38.096-6.508c-16.518,2.158-37.609,0.119-55.036-5.319
	c-6.383-1.995-13.157-3.104-20.134-3.296c-8.093-0.218-17.476-1.756-33.021-4.305c-11.534-1.891-25.852-4.239-45.233-6.968
	c-10.521-8.007-12.02-12.215-12.232-13.262l6.204-10.857l7.101,3.787c4.664,2.488,10.524,1.165,13.626-3.078
	c6.604-9.038,16.03-28.943,4.947-60.715c-0.012-0.035-0.025-0.07-0.039-0.105c-3.825-9.773-12.877-14.94-24.84-14.172
	c-13.552,0.869-27.787,9.228-29.864,17.538c-0.406,1.622-0.672,3.422-0.837,5.323c-1.936-1.286-6.636-4.122-11.945-5.226
	c-1.126-0.234-2.274-0.353-3.415-0.353c-5.919,0-11.316,3.096-14.438,8.283c-1.225,2.035-2.059,4.253-2.566,6.601l-17.598-14.891
	l-16.753-26.608c-0.049-0.078-0.102-0.154-0.158-0.227c-0.259-0.338-25.891-33.661-51.445-58.444
	c0.043-2.429,0.065-5.021,0.065-7.726c-0.011-0.147-0.021-0.296-0.032-0.443c-1.569-10.459-8.13-18.431-18.475-22.45
	c-2.649-1.025-5.547-0.758-7.953,0.733c-2.385,1.479-3.9,3.933-4.157,6.728l-1.44,15.516c-6.556,0.703-11.898,5.999-12.298,13.013
	c-0.296,5.188,2.527,10.063,7.005,12.702l0.057,0.034c0.865,0.509,1.79,0.891,2.746,1.148L59.6,54.382
	c-0.035,0.374-0.104,0.742-0.208,1.103c-2.185,7.563-18.967,65.452-25.547,82.216c-1.109,2.84-1.438,5.97-0.948,9.054
	c3.807,23.856,34.4,83.528,40.095,94.491c-3.012,4.582-9.876,18.208-2.657,39.272c0.191,0.557,0.364,1.134,0.5,1.707
	c1.824,7.729,3.258,14.627,4.909,22.56c2.428,11.67,5.18,24.898,10.089,45.209c0.979,4.071,1.192,8.367,0.632,12.765
	c-3.117,24.158,2.912,44.431,8.743,64.037c2.225,7.48,4.524,15.212,6.325,23.141l0.654,9.837
	c0.413,6.158,5.047,11.145,11.019,11.858c0.658,0.078,2.529,0.197,6.362,0.438c7.254,0.455,19.395,1.217,23.448,1.892
	c0.889,0.148,1.818,0.224,2.794,0.224c3.781,0,8.264-1.126,13.835-3.454c2.849-1.188,4.675-3.954,4.651-7.046
	c-0.024-3.108-1.901-5.859-4.781-7.008l-33.17-13.273l-6.803-80.662c1.27-5.18,10.869-45.49,7.448-66.194
	c25.376-8.233,84.831-32.964,117.381-60.823c21.732,4.11,56.005,5.448,82.116-1.121c27.885,7.49,59.366,5.206,62.989,4.911
	c2.516,0.257,18.609,1.599,34.088-4.205l15.854-5.945c0.83-0.311,1.55-0.919,1.877-1.743
	C441.824,226.283,441.343,224.816,440.217,224.036z M220.091,144.394c-1.786-11.461-2.024-20.753-0.671-26.165
	c1.308-5.233,12.837-12.263,24.427-13.005c6.581-0.423,15.184,1.029,18.849,10.32c10.152,29.153,1.763,47.062-4.145,55.145
	c-1.35,1.847-3.912,2.416-5.958,1.325l-9.672-5.158c-1.432-0.765-3.211-0.251-4.016,1.159l-7.022,12.289
	c-6.557-0.815-11.262-3.01-13.956-6.572c-3.031-4.009-2.721-8.763-2.542-10.19l1.411-2.352
	C219.822,156.145,220.992,150.18,220.091,144.394z M224.097,243.493c-29.544,19.924-69.253,36.912-92.212,45.051
	c-12.737-25.864-10.189-66.108-9.119-77.737c4.288,0.813,9.219,1.447,14.181,1.447c6.431-0.001,12.913-1.064,18.105-4.18
	c8.386-5.032,10.515-10.951,10.909-17.634c4.417-2.129,16.34-8.382,25.219-17.678c5.578,10.221,11.221,17.822,11.776,18.563
	c0.58,0.773,1.477,1.2,2.401,1.2c0.014,0,0.029,0,0.043,0c1.646-0.013,2.976-1.351,2.976-3c0-0.239-0.028-0.471-0.081-0.693
	c-0.265-2.279-1.778-15.46-2.939-28.454l3.981,3.37c-0.212,2.847-0.033,8.469,3.739,13.517c3.18,4.256,8.112,7.082,14.687,8.449
	c-8.875,2.996-24.472,10.911-25.254,29.662C201.807,232.302,213.917,240.418,224.097,243.493z M78.501,104.213
	c0.447-7.702,0.996-17.141,1.793-28.571c1.719-0.105,3.556-0.599,5.289-1.936c2.854-2.202,4.876-6.25,6.283-12.749
	c17.917,30.23,28.43,40.254,34.393,42.905c5.271,11.881,22.393,41.75,31.74,58.057l2.394,4.181
	c-0.864,6.435-0.66,11.856-0.48,16.667c0.365,9.706,0.566,15.053-7.949,20.163c-12.165,7.298-34.719,0.613-39.532-0.947
	c-4.23-6.313-29.233-43.391-41.672-56.487C76.479,139.008,76.968,130.608,78.501,104.213z M211.25,128.13
	c0.184,0,0.994,0.027,1.313-0.044c0.071,5.891,0.805,12.136,1.599,17.232c0.676,4.336-0.18,8.808-2.41,12.613l-7.093-6.005
	c-0.406-5.416-0.677-10.332-0.677-13.806C203.982,129.428,208.536,128.13,211.25,128.13z M188.106,127.895
	c2.026-3.367,5.501-5.376,9.296-5.376c0.73,0,1.468,0.076,2.193,0.227c1.579,0.329,3.117,0.864,4.508,1.461
	c-3.163,2.034-6.121,6.04-6.121,13.914c0,3.917,0.321,9.487,0.788,15.529c0,0.001,0,0.001,0,0.002
	c0.628,8.134,1.522,17.127,2.264,24.127C191.836,162.921,180.868,139.923,188.106,127.895z M141.046,93.22l16.925,26.88
	c0.164,0.26,0.366,0.493,0.601,0.691l21.233,17.966c0.312,9.158,4.049,19.362,8.438,28.33c-6.886,7.848-16.772,13.718-22.288,16.623
	c-0.014-0.388-0.028-0.777-0.043-1.169c-0.181-4.806-0.386-10.253,0.565-16.595c0.1-0.667-0.027-1.348-0.362-1.933l-2.908-5.079
	c-9.617-16.777-27.518-48.005-31.927-58.586c-0.351-0.843-1.066-1.479-1.944-1.73c-6.665-1.907-20.433-19.919-36.013-47.084
	c0.392-3.575,0.681-7.589,0.877-12.115C117.348,62.629,139.51,91.23,141.046,93.22z M56.185,36.474
	c0.396-3.606,3.124-6.334,6.51-6.874c0.411-0.066,0.842,0.02,1.195,0.241c2.015,1.263,3.337,3.459,3.463,5.877l0.255,4.928
	c0.016,0.312-0.009,0.631-0.114,0.925c-0.776,2.166-2.864,3.293-4.715,3.293c-0.888,0-1.736-0.234-2.522-0.696l-0.05-0.029
	C57.521,42.555,55.845,39.575,56.185,36.474z M65.392,56.332c0.052-0.181,0.087-0.366,0.104-0.553l0.501-5.406
	c3.816-1.17,6.814-4.359,7.599-8.439c0.046-0.238,0.063-0.48,0.05-0.722l-0.301-5.806c-0.201-3.873-2.097-7.431-5.056-9.787
	l1.577-16.994c0.114-1.243,0.891-1.899,1.344-2.18c0.791-0.49,1.749-0.577,2.623-0.238c5.794,2.251,13.023,7.116,14.676,17.524
	c-0.001,3.073-0.131,10.488-0.157,11.364c-0.19,6.481-0.559,12.085-1.099,16.694c-0.003,0.025-0.006,0.049-0.009,0.074
	c-1.366,11.782-3.65,15.798-5.327,17.092c-0.923,0.713-1.966,0.864-3.986,0.576c-0.822-0.117-1.659,0.113-2.307,0.636
	c-0.647,0.522-1.049,1.291-1.108,2.121c-0.914,12.797-1.52,23.21-2.005,31.577c-0.607,10.452-1.06,17.821-1.673,23.229l-25.32-4.849
	C53.752,96.742,64.797,58.401,65.392,56.332z M122.395,448.287l34.893,13.961c0.901,0.359,1.004,1.156,1.007,1.482
	c0.003,0.318-0.086,1.098-0.961,1.463c-5.841,2.44-10.199,3.374-13.331,2.849c-4.357-0.727-16.214-1.47-24.06-1.962
	c-2.833-0.178-5.508-0.346-6.027-0.408c-3.107-0.371-5.523-3.022-5.743-6.3l-0.67-10.07c-0.01-0.155-0.033-0.31-0.067-0.461
	c-1.852-8.205-4.203-16.11-6.477-23.756c-3.076-10.344-6.052-20.394-7.795-30.878l23.097,1.044l4.259,50.502
	C120.615,446.886,121.341,447.866,122.395,448.287z M120.598,295.23c4.761,19.042-6.882,66.072-7,66.545
	c-0.08,0.32-0.106,0.651-0.079,0.979l2.232,26.468l-23.448-1.06c-0.896-7.809-1.014-15.925,0.111-24.641
	c0.653-5.127,0.401-10.15-0.75-14.934c-4.888-20.22-7.629-33.398-10.048-45.024c-1.732-8.328-3.229-15.521-5.19-23.756
	c-0.026-0.108-0.255-0.768-0.333-0.991c-7.638-21.99,1.84-34.314,2.646-35.305c1.477-1.533,6.3-5.675,10.102-5.675
	c1.657,0,3-1.343,3-3c0-1.657-1.343-3-3-3c-4.423,0-8.689,2.659-11.452,4.847c-7.341-14.27-35.122-69.269-38.569-90.87
	c-0.322-2.03-0.111-4.08,0.609-5.923c1.153-2.937,2.596-7.054,4.206-11.894l26.305,5.037c-1.06,5.163-2.629,7.743-5.426,10.229
	c-0.634,0.564-1.001,1.37-1.007,2.219c-0.006,0.849,0.347,1.661,0.973,2.234c11.597,10.63,43.213,57.976,43.531,58.453
	c0.358,0.537,0.879,0.944,1.487,1.161c0.36,0.128,3.169,1.115,7.355,2.172c-0.474,4.803-1.319,15.542-0.991,28.565
	c0.547,21.717,4.016,39.326,10.307,52.439c-1.262,0.416-2.446,0.794-3.545,1.132C121.103,292.104,120.212,293.683,120.598,295.23z
	 M421.456,229.693c-15.093,5.66-31.436,3.848-31.596,3.83c-0.204-0.024-0.41-0.027-0.614-0.009
	c-0.335,0.029-33.818,2.853-61.939-4.904c-0.507-0.139-1.042-0.144-1.551-0.012c-27.628,7.163-63.972,4.5-81.659,0.962
	c-0.916-0.183-1.862,0.07-2.564,0.684c-3.308,2.895-6.927,5.757-10.777,8.573c-4.687-0.701-23.024-4.632-22.25-23.19
	c0.367-8.809,4.782-15.761,13.123-20.664c4.361-2.563,8.733-3.9,11.17-4.509c2.134,3.177,6.022,7.282,12.91,12.447
	c0.405,0.304,0.881,0.501,1.383,0.571c19.705,2.766,34.211,5.144,45.867,7.056c15.795,2.59,25.329,4.153,33.828,4.382
	c6.425,0.176,12.652,1.194,18.509,3.025c18.479,5.765,40.012,7.837,57.602,5.541c12.78-1.667,22.332,0.579,27.987,2.681
	L421.456,229.693z"/>
<g>
</g>
<g>
</g>
<g>
</g>
<g>
</g>
<g>
</g>
<g>
</g>
<g>
</g>
<g>
</g>
<g>
</g>
<g>
</g>
<g>
</g>
<g>
</g>
<g>
</g>
<g>
</g>
<g>
</g>
</svg>
